<mxfile host="app.diagrams.net" agent="Mozilla/5.0 (Windows NT 10.0; Win64; x64) AppleWebKit/537.36 (KHTML, like Gecko) Chrome/129.0.0.0 Safari/537.36" version="24.7.17">
  <diagram name="Page-1" id="a6mXKFydvhSsRMZqOBNh">
    <mxGraphModel dx="1061" dy="926" grid="0" gridSize="10" guides="1" tooltips="1" connect="1" arrows="1" fold="1" page="0" pageScale="1" pageWidth="850" pageHeight="1100" math="0" shadow="0">
      <root>
        <mxCell id="0" />
        <mxCell id="1" parent="0" />
        <mxCell id="KFVTbYc3SVS7vfwe54FW-36" value=":TriageApplication" style="shape=umlLifeline;perimeter=lifelinePerimeter;whiteSpace=wrap;html=1;container=0;dropTarget=0;collapsible=0;recursiveResize=0;outlineConnect=0;portConstraint=eastwest;newEdgeStyle={&quot;edgeStyle&quot;:&quot;elbowEdgeStyle&quot;,&quot;elbow&quot;:&quot;vertical&quot;,&quot;curved&quot;:0,&quot;rounded&quot;:0};" vertex="1" parent="1">
          <mxGeometry x="90" y="70" width="100" height="480" as="geometry" />
        </mxCell>
        <mxCell id="KFVTbYc3SVS7vfwe54FW-37" value="" style="html=1;points=[];perimeter=orthogonalPerimeter;outlineConnect=0;targetShapes=umlLifeline;portConstraint=eastwest;newEdgeStyle={&quot;edgeStyle&quot;:&quot;elbowEdgeStyle&quot;,&quot;elbow&quot;:&quot;vertical&quot;,&quot;curved&quot;:0,&quot;rounded&quot;:0};" vertex="1" parent="KFVTbYc3SVS7vfwe54FW-36">
          <mxGeometry x="45" y="70" width="10" height="30" as="geometry" />
        </mxCell>
        <mxCell id="KFVTbYc3SVS7vfwe54FW-38" value=":Server" style="shape=umlLifeline;perimeter=lifelinePerimeter;whiteSpace=wrap;html=1;container=0;dropTarget=0;collapsible=0;recursiveResize=0;outlineConnect=0;portConstraint=eastwest;newEdgeStyle={&quot;edgeStyle&quot;:&quot;elbowEdgeStyle&quot;,&quot;elbow&quot;:&quot;vertical&quot;,&quot;curved&quot;:0,&quot;rounded&quot;:0};" vertex="1" parent="1">
          <mxGeometry x="240" y="60" width="100" height="510" as="geometry" />
        </mxCell>
        <mxCell id="KFVTbYc3SVS7vfwe54FW-39" value="" style="html=1;points=[];perimeter=orthogonalPerimeter;outlineConnect=0;targetShapes=umlLifeline;portConstraint=eastwest;newEdgeStyle={&quot;edgeStyle&quot;:&quot;elbowEdgeStyle&quot;,&quot;elbow&quot;:&quot;vertical&quot;,&quot;curved&quot;:0,&quot;rounded&quot;:0};" vertex="1" parent="KFVTbYc3SVS7vfwe54FW-38">
          <mxGeometry x="45" y="80" width="10" height="60" as="geometry" />
        </mxCell>
        <mxCell id="KFVTbYc3SVS7vfwe54FW-40" value=":Website" style="shape=umlLifeline;perimeter=lifelinePerimeter;whiteSpace=wrap;html=1;container=0;dropTarget=0;collapsible=0;recursiveResize=0;outlineConnect=0;portConstraint=eastwest;newEdgeStyle={&quot;edgeStyle&quot;:&quot;elbowEdgeStyle&quot;,&quot;elbow&quot;:&quot;vertical&quot;,&quot;curved&quot;:0,&quot;rounded&quot;:0};" vertex="1" parent="1">
          <mxGeometry x="-60" y="70" width="100" height="480" as="geometry" />
        </mxCell>
        <mxCell id="KFVTbYc3SVS7vfwe54FW-41" value="" style="html=1;points=[];perimeter=orthogonalPerimeter;outlineConnect=0;targetShapes=umlLifeline;portConstraint=eastwest;newEdgeStyle={&quot;edgeStyle&quot;:&quot;elbowEdgeStyle&quot;,&quot;elbow&quot;:&quot;vertical&quot;,&quot;curved&quot;:0,&quot;rounded&quot;:0};" vertex="1" parent="KFVTbYc3SVS7vfwe54FW-40">
          <mxGeometry x="45" y="60" width="10" height="70" as="geometry" />
        </mxCell>
        <mxCell id="KFVTbYc3SVS7vfwe54FW-42" value=":Nurse" style="shape=umlLifeline;perimeter=lifelinePerimeter;whiteSpace=wrap;html=1;container=0;dropTarget=0;collapsible=0;recursiveResize=0;outlineConnect=0;portConstraint=eastwest;newEdgeStyle={&quot;edgeStyle&quot;:&quot;elbowEdgeStyle&quot;,&quot;elbow&quot;:&quot;vertical&quot;,&quot;curved&quot;:0,&quot;rounded&quot;:0};" vertex="1" parent="1">
          <mxGeometry x="-210" y="70" width="100" height="480" as="geometry" />
        </mxCell>
        <mxCell id="KFVTbYc3SVS7vfwe54FW-43" value="viewTriageApplication" style="html=1;verticalAlign=bottom;endArrow=block;edgeStyle=elbowEdgeStyle;elbow=vertical;curved=0;rounded=0;" edge="1" parent="1">
          <mxGeometry relative="1" as="geometry">
            <mxPoint x="-160" y="140" as="sourcePoint" />
            <Array as="points">
              <mxPoint x="-95" y="140" />
            </Array>
            <mxPoint x="-10" y="140" as="targetPoint" />
          </mxGeometry>
        </mxCell>
        <mxCell id="KFVTbYc3SVS7vfwe54FW-44" value="viewTriageApplication" style="html=1;verticalAlign=bottom;endArrow=block;edgeStyle=elbowEdgeStyle;elbow=vertical;curved=0;rounded=0;" edge="1" parent="1">
          <mxGeometry relative="1" as="geometry">
            <mxPoint x="-10" y="150" as="sourcePoint" />
            <Array as="points">
              <mxPoint x="55" y="150" />
            </Array>
            <mxPoint x="140" y="150" as="targetPoint" />
          </mxGeometry>
        </mxCell>
        <mxCell id="KFVTbYc3SVS7vfwe54FW-45" value="viewTriageApplication" style="html=1;verticalAlign=bottom;endArrow=block;edgeStyle=elbowEdgeStyle;elbow=vertical;curved=0;rounded=0;" edge="1" parent="1">
          <mxGeometry relative="1" as="geometry">
            <mxPoint x="140" y="150" as="sourcePoint" />
            <Array as="points">
              <mxPoint x="205" y="150" />
            </Array>
            <mxPoint x="290" y="150" as="targetPoint" />
          </mxGeometry>
        </mxCell>
        <mxCell id="KFVTbYc3SVS7vfwe54FW-46" value="" style="html=1;verticalAlign=bottom;endArrow=block;edgeStyle=elbowEdgeStyle;elbow=vertical;curved=0;rounded=0;" edge="1" parent="1" target="KFVTbYc3SVS7vfwe54FW-40">
          <mxGeometry x="0.0028" relative="1" as="geometry">
            <mxPoint x="285.5" y="190" as="sourcePoint" />
            <Array as="points">
              <mxPoint x="210.5" y="190" />
            </Array>
            <mxPoint x="130" y="190" as="targetPoint" />
            <mxPoint as="offset" />
          </mxGeometry>
        </mxCell>
        <mxCell id="KFVTbYc3SVS7vfwe54FW-47" value="Update Order" style="shape=umlFrame;whiteSpace=wrap;html=1;pointerEvents=0;width=50;height=30;movable=1;resizable=1;rotatable=1;deletable=1;editable=1;locked=0;connectable=1;" vertex="1" parent="1">
          <mxGeometry x="-240" y="220" width="660" height="160" as="geometry" />
        </mxCell>
        <mxCell id="KFVTbYc3SVS7vfwe54FW-48" value="updateTriageOrder" style="html=1;verticalAlign=bottom;endArrow=block;edgeStyle=elbowEdgeStyle;elbow=vertical;curved=0;rounded=0;" edge="1" parent="1" target="KFVTbYc3SVS7vfwe54FW-38">
          <mxGeometry x="-0.733" relative="1" as="geometry">
            <mxPoint x="-160" y="250" as="sourcePoint" />
            <Array as="points">
              <mxPoint x="-95" y="250" />
            </Array>
            <mxPoint x="-10" y="250" as="targetPoint" />
            <mxPoint as="offset" />
          </mxGeometry>
        </mxCell>
        <mxCell id="KFVTbYc3SVS7vfwe54FW-49" value="process Triage order" style="html=1;verticalAlign=bottom;endArrow=block;edgeStyle=elbowEdgeStyle;elbow=vertical;curved=0;rounded=0;" edge="1" parent="1" source="KFVTbYc3SVS7vfwe54FW-52">
          <mxGeometry relative="1" as="geometry">
            <mxPoint x="290" y="260" as="sourcePoint" />
            <Array as="points">
              <mxPoint x="325" y="260" />
              <mxPoint x="375" y="250" />
            </Array>
            <mxPoint x="410" y="260" as="targetPoint" />
          </mxGeometry>
        </mxCell>
        <mxCell id="KFVTbYc3SVS7vfwe54FW-50" value="" style="html=1;verticalAlign=bottom;endArrow=block;edgeStyle=elbowEdgeStyle;elbow=vertical;curved=0;rounded=0;" edge="1" parent="1">
          <mxGeometry relative="1" as="geometry">
            <mxPoint x="410" y="280" as="sourcePoint" />
            <Array as="points">
              <mxPoint x="380" y="280" />
            </Array>
            <mxPoint x="295" y="280" as="targetPoint" />
          </mxGeometry>
        </mxCell>
        <mxCell id="KFVTbYc3SVS7vfwe54FW-51" value="" style="html=1;verticalAlign=bottom;endArrow=block;edgeStyle=elbowEdgeStyle;elbow=vertical;curved=0;rounded=0;" edge="1" parent="1" target="KFVTbYc3SVS7vfwe54FW-52">
          <mxGeometry relative="1" as="geometry">
            <mxPoint x="290" y="260" as="sourcePoint" />
            <Array as="points" />
            <mxPoint x="410" y="260" as="targetPoint" />
          </mxGeometry>
        </mxCell>
        <mxCell id="KFVTbYc3SVS7vfwe54FW-52" value="" style="html=1;points=[];perimeter=orthogonalPerimeter;outlineConnect=0;targetShapes=umlLifeline;portConstraint=eastwest;newEdgeStyle={&quot;edgeStyle&quot;:&quot;elbowEdgeStyle&quot;,&quot;elbow&quot;:&quot;vertical&quot;,&quot;curved&quot;:0,&quot;rounded&quot;:0};" vertex="1" parent="1">
          <mxGeometry x="285" y="240" width="10" height="80" as="geometry" />
        </mxCell>
        <mxCell id="KFVTbYc3SVS7vfwe54FW-53" value="" style="html=1;verticalAlign=bottom;endArrow=block;edgeStyle=elbowEdgeStyle;elbow=vertical;curved=0;rounded=0;" edge="1" parent="1" source="KFVTbYc3SVS7vfwe54FW-55" target="KFVTbYc3SVS7vfwe54FW-36">
          <mxGeometry relative="1" as="geometry">
            <mxPoint x="285" y="290" as="sourcePoint" />
            <Array as="points" />
            <mxPoint x="170" y="290" as="targetPoint" />
          </mxGeometry>
        </mxCell>
        <mxCell id="KFVTbYc3SVS7vfwe54FW-54" value="updateTriage" style="html=1;verticalAlign=bottom;endArrow=block;edgeStyle=elbowEdgeStyle;elbow=vertical;curved=0;rounded=0;" edge="1" parent="1" target="KFVTbYc3SVS7vfwe54FW-55">
          <mxGeometry relative="1" as="geometry">
            <mxPoint x="285" y="290" as="sourcePoint" />
            <Array as="points">
              <mxPoint x="255" y="290" />
            </Array>
            <mxPoint x="140" y="290" as="targetPoint" />
          </mxGeometry>
        </mxCell>
        <mxCell id="KFVTbYc3SVS7vfwe54FW-55" value="" style="html=1;points=[];perimeter=orthogonalPerimeter;outlineConnect=0;targetShapes=umlLifeline;portConstraint=eastwest;newEdgeStyle={&quot;edgeStyle&quot;:&quot;elbowEdgeStyle&quot;,&quot;elbow&quot;:&quot;vertical&quot;,&quot;curved&quot;:0,&quot;rounded&quot;:0};" vertex="1" parent="1">
          <mxGeometry x="135" y="270" width="10" height="30" as="geometry" />
        </mxCell>
        <mxCell id="KFVTbYc3SVS7vfwe54FW-56" value="" style="html=1;verticalAlign=bottom;endArrow=block;edgeStyle=elbowEdgeStyle;elbow=vertical;curved=0;rounded=0;" edge="1" parent="1" source="KFVTbYc3SVS7vfwe54FW-70">
          <mxGeometry relative="1" as="geometry">
            <mxPoint x="285" y="319" as="sourcePoint" />
            <Array as="points">
              <mxPoint x="255" y="319" />
            </Array>
            <mxPoint x="-10" y="320" as="targetPoint" />
          </mxGeometry>
        </mxCell>
        <mxCell id="KFVTbYc3SVS7vfwe54FW-57" value="Delete Application" style="shape=umlFrame;whiteSpace=wrap;html=1;pointerEvents=0;width=70;height=30;movable=1;resizable=1;rotatable=1;deletable=1;editable=1;locked=0;connectable=1;" vertex="1" parent="1">
          <mxGeometry x="-240" y="400" width="640" height="160" as="geometry" />
        </mxCell>
        <mxCell id="KFVTbYc3SVS7vfwe54FW-58" value="delete" style="html=1;verticalAlign=bottom;startArrow=oval;endArrow=block;startSize=8;edgeStyle=elbowEdgeStyle;elbow=horizontal;curved=0;rounded=0;" edge="1" parent="1">
          <mxGeometry x="0.0043" relative="1" as="geometry">
            <mxPoint x="-5" y="450" as="sourcePoint" />
            <mxPoint x="130" y="450" as="targetPoint" />
            <mxPoint as="offset" />
          </mxGeometry>
        </mxCell>
        <mxCell id="KFVTbYc3SVS7vfwe54FW-59" value="deleteTriage" style="html=1;verticalAlign=bottom;endArrow=block;edgeStyle=elbowEdgeStyle;elbow=vertical;curved=0;rounded=0;" edge="1" parent="1" target="KFVTbYc3SVS7vfwe54FW-65">
          <mxGeometry relative="1" as="geometry">
            <mxPoint x="140" y="450" as="sourcePoint" />
            <Array as="points">
              <mxPoint x="225" y="450" />
            </Array>
            <mxPoint x="320" y="450" as="targetPoint" />
          </mxGeometry>
        </mxCell>
        <mxCell id="KFVTbYc3SVS7vfwe54FW-60" value="remove from Triage" style="html=1;verticalAlign=bottom;endArrow=block;edgeStyle=elbowEdgeStyle;elbow=vertical;curved=0;rounded=0;" edge="1" parent="1">
          <mxGeometry relative="1" as="geometry">
            <mxPoint x="300" y="459.52" as="sourcePoint" />
            <Array as="points">
              <mxPoint x="330" y="459.52" />
              <mxPoint x="380" y="449.52" />
            </Array>
            <mxPoint x="395" y="459.52" as="targetPoint" />
          </mxGeometry>
        </mxCell>
        <mxCell id="KFVTbYc3SVS7vfwe54FW-61" value="" style="html=1;verticalAlign=bottom;endArrow=block;edgeStyle=elbowEdgeStyle;elbow=vertical;curved=0;rounded=0;" edge="1" parent="1">
          <mxGeometry relative="1" as="geometry">
            <mxPoint x="395" y="479.52" as="sourcePoint" />
            <Array as="points">
              <mxPoint x="385" y="479.52" />
            </Array>
            <mxPoint x="295" y="479.52" as="targetPoint" />
          </mxGeometry>
        </mxCell>
        <mxCell id="KFVTbYc3SVS7vfwe54FW-62" value="deleteTriageApplication" style="html=1;verticalAlign=bottom;startArrow=oval;endArrow=block;startSize=8;edgeStyle=elbowEdgeStyle;elbow=vertical;curved=0;rounded=0;" edge="1" parent="1" source="KFVTbYc3SVS7vfwe54FW-68">
          <mxGeometry x="1" y="80" relative="1" as="geometry">
            <mxPoint x="-156" y="430" as="sourcePoint" />
            <mxPoint x="-20" y="430" as="targetPoint" />
            <mxPoint as="offset" />
          </mxGeometry>
        </mxCell>
        <mxCell id="KFVTbYc3SVS7vfwe54FW-63" value="" style="verticalLabelPosition=bottom;verticalAlign=top;html=1;shape=mxgraph.basic.x" vertex="1" parent="1">
          <mxGeometry x="120" y="520" width="40" height="30" as="geometry" />
        </mxCell>
        <mxCell id="KFVTbYc3SVS7vfwe54FW-64" value="" style="html=1;points=[];perimeter=orthogonalPerimeter;outlineConnect=0;targetShapes=umlLifeline;portConstraint=eastwest;newEdgeStyle={&quot;edgeStyle&quot;:&quot;elbowEdgeStyle&quot;,&quot;elbow&quot;:&quot;vertical&quot;,&quot;curved&quot;:0,&quot;rounded&quot;:0};" vertex="1" parent="1">
          <mxGeometry x="135" y="410" width="10" height="100" as="geometry" />
        </mxCell>
        <mxCell id="KFVTbYc3SVS7vfwe54FW-65" value="" style="html=1;points=[];perimeter=orthogonalPerimeter;outlineConnect=0;targetShapes=umlLifeline;portConstraint=eastwest;newEdgeStyle={&quot;edgeStyle&quot;:&quot;elbowEdgeStyle&quot;,&quot;elbow&quot;:&quot;vertical&quot;,&quot;curved&quot;:0,&quot;rounded&quot;:0};" vertex="1" parent="1">
          <mxGeometry x="285" y="420" width="10" height="80" as="geometry" />
        </mxCell>
        <mxCell id="KFVTbYc3SVS7vfwe54FW-66" value="delete from list" style="html=1;verticalAlign=bottom;endArrow=block;edgeStyle=elbowEdgeStyle;elbow=vertical;curved=0;rounded=0;" edge="1" parent="1">
          <mxGeometry relative="1" as="geometry">
            <mxPoint x="145.5" y="490" as="sourcePoint" />
            <Array as="points" />
            <mxPoint x="-5" y="490" as="targetPoint" />
          </mxGeometry>
        </mxCell>
        <mxCell id="KFVTbYc3SVS7vfwe54FW-67" value="" style="html=1;verticalAlign=bottom;startArrow=oval;endArrow=block;startSize=8;edgeStyle=elbowEdgeStyle;elbow=vertical;curved=0;rounded=0;" edge="1" parent="1" target="KFVTbYc3SVS7vfwe54FW-68">
          <mxGeometry x="0.0043" relative="1" as="geometry">
            <mxPoint x="-156" y="430" as="sourcePoint" />
            <mxPoint x="-20" y="430" as="targetPoint" />
            <mxPoint as="offset" />
          </mxGeometry>
        </mxCell>
        <mxCell id="KFVTbYc3SVS7vfwe54FW-68" value="" style="html=1;points=[];perimeter=orthogonalPerimeter;outlineConnect=0;targetShapes=umlLifeline;portConstraint=eastwest;newEdgeStyle={&quot;edgeStyle&quot;:&quot;elbowEdgeStyle&quot;,&quot;elbow&quot;:&quot;vertical&quot;,&quot;curved&quot;:0,&quot;rounded&quot;:0};" vertex="1" parent="1">
          <mxGeometry x="-15" y="410" width="10" height="120" as="geometry" />
        </mxCell>
        <mxCell id="KFVTbYc3SVS7vfwe54FW-69" value="" style="html=1;verticalAlign=bottom;endArrow=block;edgeStyle=elbowEdgeStyle;elbow=vertical;curved=0;rounded=0;" edge="1" parent="1" target="KFVTbYc3SVS7vfwe54FW-70">
          <mxGeometry relative="1" as="geometry">
            <mxPoint x="285" y="319" as="sourcePoint" />
            <Array as="points" />
            <mxPoint x="-10" y="320" as="targetPoint" />
          </mxGeometry>
        </mxCell>
        <mxCell id="KFVTbYc3SVS7vfwe54FW-70" value="" style="html=1;points=[];perimeter=orthogonalPerimeter;outlineConnect=0;targetShapes=umlLifeline;portConstraint=eastwest;newEdgeStyle={&quot;edgeStyle&quot;:&quot;elbowEdgeStyle&quot;,&quot;elbow&quot;:&quot;vertical&quot;,&quot;curved&quot;:0,&quot;rounded&quot;:0};" vertex="1" parent="1">
          <mxGeometry x="-15" y="300" width="10" height="30" as="geometry" />
        </mxCell>
      </root>
    </mxGraphModel>
  </diagram>
</mxfile>
